<svg class="patternlibrary-icon patternlibrary-icon--desktop" viewBox="0 0 50 50">
    <g>
        <path d="M45.312,36.719V12.5c0-1.289-1.055-2.344-2.344-2.344H7.031c-1.289,0-2.344,1.055-2.344,2.344v24.219H0v1.562
            c0,0.859,0.703,1.562,1.562,1.562h46.875c0.859,0,1.562-0.703,1.562-1.562v-1.562H45.312z M5.469,12.5
            c0-0.862,0.701-1.562,1.562-1.562h35.938c0.862,0,1.562,0.701,1.562,1.562v24.219H5.469V12.5z M49.219,38.281
            c0,0.431-0.35,0.781-0.781,0.781H1.562c-0.431,0-0.781-0.35-0.781-0.781V37.5h3.906h17.188c0,0.43,0.352,0.781,0.781,0.781h4.688
            c0.43,0,0.781-0.352,0.781-0.781h17.188h3.906V38.281z"/>
        <path d="M42.578,11.719H7.422c-0.647,0-1.172,0.525-1.172,1.172v21.875c0,0.647,0.525,1.172,1.172,1.172h35.156
            c0.647,0,1.172-0.525,1.172-1.172V12.891C43.75,12.243,43.225,11.719,42.578,11.719z M43.359,34.766
            c0,0.431-0.35,0.781-0.781,0.781H7.422c-0.431,0-0.781-0.35-0.781-0.781V12.891c0-0.431,0.35-0.781,0.781-0.781h35.156
            c0.431,0,0.781,0.35,0.781,0.781V34.766z"/>
    </g>
</svg>
