<svg class="patternlibrary-icon patternlibrary-icon--tablet-landscape" viewBox="0 0 50 50">
    <g>
        <path d="M35.938,42.773c0,0.215,0.176,0.391,0.391,0.391h3.906c0.215,0,0.391-0.176,0.391-0.391h1.562
            c0,0.215,0.176,0.391,0.391,0.391h0.781c0.215,0,0.391-0.176,0.391-0.391h2.98c1.798,0,3.27-1.472,3.27-3.27V10.106
            c0-1.798-1.472-3.27-3.27-3.27H3.27C1.472,6.836,0,8.308,0,10.106v29.397c0,1.798,1.472,3.27,3.27,3.27H35.938z M7.111,40.82
            c-0.69,0-1.252-0.562-1.252-1.252V10.041c0-0.69,0.562-1.252,1.252-1.252H43.67c0.69,0,1.252,0.562,1.252,1.252v29.527
            c0,0.69-0.562,1.252-1.252,1.252H7.111z M3.27,41.992c-1.372,0-2.489-1.117-2.489-2.489V10.106c0-1.372,1.117-2.489,2.489-2.489
            H46.73c1.372,0,2.489,1.117,2.489,2.489v29.397c0,1.372-1.117,2.489-2.489,2.489H3.27z M43.67,41.211
            c0.907,0,1.643-0.736,1.643-1.643V10.041c0-0.907-0.736-1.643-1.643-1.643H7.111c-0.907,0-1.643,0.736-1.643,1.643v29.527
            c0,0.907,0.736,1.643,1.643,1.643H43.67z"/>
        <circle cx="47.266" cy="24.805" r="0.391"/>
        <path d="M3.125,23.242c-0.863,0-1.562,0.7-1.562,1.562s0.7,1.562,1.562,1.562s1.562-0.7,1.562-1.562S3.988,23.242,3.125,23.242z
             M3.125,25.977c-0.646,0-1.172-0.526-1.172-1.172s0.526-1.172,1.172-1.172s1.172,0.526,1.172,1.172S3.771,25.977,3.125,25.977z"/>
    </g>
</svg>
