<svg class="patternlibrary-icon patternlibrary-icon--tablet-portrait" viewBox="0 0 50 50">
    <g>
        <path d="M41.602,7.422V6.641c0-0.215-0.176-0.391-0.391-0.391V3.125C41.211,1.406,39.805,0,38.086,0H11.523
            C9.805,0,8.398,1.406,8.398,3.125v43.75c0,1.719,1.406,3.125,3.125,3.125h26.562c1.719,0,3.125-1.406,3.125-3.125V14.062
            c0.215,0,0.391-0.176,0.391-0.391V9.766c0-0.215-0.176-0.391-0.391-0.391V7.812C41.426,7.812,41.602,7.637,41.602,7.422z
             M40.43,46.875c0,1.292-1.052,2.344-2.344,2.344H11.523c-1.292,0-2.344-1.052-2.344-2.344V3.125c0-1.292,1.052-2.344,2.344-2.344
            h26.562c1.292,0,2.344,1.052,2.344,2.344V46.875z"/>
        <circle cx="24.805" cy="2.734" r="0.391"/>
        <path d="M24.805,45.312c-0.863,0-1.562,0.7-1.562,1.562s0.7,1.562,1.562,1.562s1.562-0.7,1.562-1.562S25.668,45.312,24.805,45.312z
             M24.805,48.047c-0.646,0-1.172-0.526-1.172-1.172s0.526-1.172,1.172-1.172s1.172,0.526,1.172,1.172S25.451,48.047,24.805,48.047z"
        />
        <path d="M38.086,4.688H11.523c-0.863,0-1.562,0.7-1.562,1.562v36.719c0,0.863,0.7,1.562,1.562,1.562h26.562
            c0.863,0,1.562-0.7,1.562-1.562V6.25C39.648,5.387,38.949,4.688,38.086,4.688z M39.258,42.969c0,0.646-0.526,1.172-1.172,1.172
            H11.523c-0.646,0-1.172-0.526-1.172-1.172V6.25c0-0.646,0.526-1.172,1.172-1.172h26.562c0.646,0,1.172,0.526,1.172,1.172V42.969z"
        />
    </g>
</svg>
